<svg id="Capa_1" enable-background="new 0 0 512 512" height="512" viewBox="0 0 512 512" width="512" xmlns="http://www.w3.org/2000/svg"><g><path d="m197.66 74.992-45.155 45.155-43.003-28.325c-14.857-9.786-16.992-30.744-4.411-43.324l20.92-20.92c12.58-12.58 33.538-10.446 43.324 4.411z" fill="#e7889d"/><path d="m197.661 74.992-22.846-34.684c-31.066 1.498-57.11 22.43-66.229 50.872.303.217.603.435.917.642l43.003 28.325z" fill="#e16e7e"/><path d="m169.335 31.989c-9.786-14.858-30.744-16.992-43.324-4.411l-11.277 11.277c7.5 1.171 14.558 5.35 19.156 12.331l28.394 43.107-19.471 19.471 9.693 6.384 45.155-45.155z" fill="#4e5660"/><path d="m375.998 281.887h-239.996v-168.381c0-23.408 18.976-42.383 42.383-42.383h155.229c23.408 0 42.383 18.976 42.383 42.383v168.381z" fill="#fbf1cf"/><path d="m152.506 120.147 45.155-45.155-22.846-34.684c-14.539.701-27.968 5.67-39.09 13.662l26.559 40.322-19.471 19.471z" fill="#3a4351"/><path d="m314.34 74.992 45.155 45.155 43.003-28.325c14.857-9.786 16.991-30.744 4.411-43.324l-20.92-20.92c-12.58-12.58-33.538-10.446-43.324 4.411z" fill="#e7889d"/><path d="m314.34 74.992 22.846-34.684c31.066 1.498 57.11 22.43 66.229 50.872-.303.217-.603.435-.917.642l-43.003 28.325z" fill="#e16e7e"/><path d="m342.665 31.989c9.786-14.858 30.744-16.992 43.324-4.411l11.277 11.277c-7.5 1.171-14.558 5.35-19.156 12.331l-28.393 43.107 19.471 19.471-9.693 6.384-45.155-45.156z" fill="#4e5660"/><path d="m359.494 120.147-45.154-45.155 22.846-34.684c14.539.701 27.969 5.67 39.09 13.662l-26.559 40.322 19.471 19.471z" fill="#3a4351"/><path d="m375.998 281.887h-239.996v-168.381c0-23.408 18.976-42.383 42.383-42.383h155.229c23.408 0 42.383 18.976 42.383 42.383v168.381z" fill="#fbf1cf"/><path d="m239.855 130.15h32.29c6.339 0 11.631-4.638 12.702-10.886 3.343-19.508 15.098-37.141 27.531-48.142h-112.755c12.433 11.001 24.188 28.634 27.531 48.142 1.07 6.249 6.362 10.886 12.701 10.886z" fill="#9fe6e6"/><g><g><ellipse cx="173.951" cy="201.904" fill="#e7889d" rx="30.274" ry="24.109"/><ellipse cx="338.049" cy="201.904" fill="#e7889d" rx="30.274" ry="24.109"/><path d="m280.409 183.38c0-15.085-10.928-16.502-24.409-16.502-13.48 0-24.409 1.417-24.409 16.502s10.928 27.313 24.409 27.313 24.409-12.228 24.409-27.313z" fill="#4e5660"/></g><g fill="#4e5660"><path d="m179.013 180.621c-4.143 0-7.5-3.358-7.5-7.5v-12.362c0-4.142 3.357-7.5 7.5-7.5s7.5 3.358 7.5 7.5v12.362c0 4.142-3.358 7.5-7.5 7.5z"/><path d="m332.987 180.621c-4.143 0-7.5-3.358-7.5-7.5v-12.362c0-4.142 3.357-7.5 7.5-7.5s7.5 3.358 7.5 7.5v12.362c0 4.142-3.357 7.5-7.5 7.5z"/></g></g><g fill="#e7889d"><path d="m227.982 282.918h-51.677l5.219-36.193c.859-5.961 5.968-10.386 11.991-10.386h17.258c6.023 0 11.131 4.425 11.991 10.386z"/><path d="m284.018 282.918h51.677l-5.219-36.193c-.86-5.961-5.968-10.386-11.991-10.386h-17.258c-6.023 0-11.131 4.425-11.991 10.386z"/><path d="m136.002 300.235h-115.692c-17.413 0-26.879 20.805-15.05 33.582 9.032 9.757 21.95 15.864 36.294 15.864h94.449v-49.446z"/></g><path d="m136.002 349.682h-88.387c-17.412 0-26.879 20.805-15.05 33.582 9.032 9.757 21.95 15.864 36.294 15.864h67.144v-49.446z" fill="#fbf1cf"/><path d="m136.002 399.128h-61.063c-17.779 0-26.815 21.298-14.533 34.153 9.003 9.424 21.695 15.294 35.757 15.294h39.839z" fill="#e7889d"/><path d="m105.097 349.682h30.905v49.447h-30.905z" fill="#f7dfb7"/><path d="m105.097 399.128h30.905v49.447h-30.905z" fill="#e16e7e"/><path d="m105.097 300.235h30.905v49.447h-30.905z" fill="#e16e7e"/><path d="m375.998 300.235h115.692c17.412 0 26.879 20.805 15.05 33.582-9.032 9.757-21.95 15.864-36.294 15.864h-94.449v-49.446z" fill="#e7889d"/><path d="m375.998 349.682h88.388c17.412 0 26.879 20.805 15.05 33.582-9.032 9.757-21.95 15.864-36.294 15.864h-67.144z" fill="#fbf1cf"/><path d="m375.998 399.128h61.063c17.779 0 26.815 21.298 14.533 34.153-9.003 9.424-21.695 15.294-35.757 15.294h-39.839z" fill="#e7889d"/><path d="m375.998 349.682h30.905v49.447h-30.905z" fill="#f7dfb7"/><path d="m375.998 399.128h30.905v49.447h-30.905z" fill="#e16e7e"/><path d="m375.998 300.235h30.905v49.447h-30.905z" fill="#e16e7e"/><path d="m333.615 492.652h-155.23c-23.408 0-42.383-18.976-42.383-42.383v-168.382h239.996v168.381c0 23.408-18.976 42.384-42.383 42.384z" fill="#e0b799"/><ellipse cx="206.729" cy="365.999" fill="#fff" rx="31.785" ry="31.785" transform="matrix(.924 -.383 .383 .924 -124.326 106.972)"/><path d="m213.959 365.999c0-3.993-3.237-7.23-7.23-7.23s-7.23 3.237-7.23 7.23 3.237 7.23 7.23 7.23 7.23-3.237 7.23-7.23z" fill="#9fe6e6"/><ellipse cx="305.271" cy="365.999" fill="#fff" rx="31.785" ry="31.785" transform="matrix(.383 -.924 .924 .383 -149.69 507.971)"/><path d="m298.041 365.999c0-3.993 3.237-7.23 7.23-7.23s7.23 3.237 7.23 7.23-3.237 7.23-7.23 7.23-7.23-3.237-7.23-7.23z" fill="#9fe6e6"/><path d="m256 452.517c27.299 0 45.421-39.164 45.421-55.699 0-16.534-10.844-37.041-45.421-37.041s-45.421 20.507-45.421 37.041c0 16.535 18.122 55.699 45.421 55.699z" fill="#f6ee86"/><path d="m256 421.746c-4.143 0-7.5-3.358-7.5-7.5v-21.186c0-4.142 3.357-7.5 7.5-7.5s7.5 3.358 7.5 7.5v21.186c0 4.142-3.357 7.5-7.5 7.5z" fill="#eed076"/></g></svg>